<svg width="40" height="40" viewBox="0 0 40 40" fill="none" xmlns="http://www.w3.org/2000/svg">
<rect width="40" height="40" rx="10" fill="#F47B0A"/>
<path fill-rule="evenodd" clip-rule="evenodd" d="M13 14C13 13.4696 13.2107 12.9609 13.5858 12.5858C13.9609 12.2107 14.4696 12 15 12H27C27.5304 12 28.0391 12.2107 28.4142 12.5858C28.7893 12.9609 29 13.4696 29 14V22C29 22.5304 28.7893 23.0391 28.4142 23.4142C28.0391 23.7893 27.5304 24 27 24H15C14.4696 24 13.9609 23.7893 13.5858 23.4142C13.2107 23.0391 13 22.5304 13 22V14ZM15.5 15C15.3674 15 15.2402 15.0527 15.1464 15.1464C15.0527 15.2402 15 15.3674 15 15.5V16.5C15 16.6326 15.0527 16.7598 15.1464 16.8536C15.2402 16.9473 15.3674 17 15.5 17H17.5C17.6326 17 17.7598 16.9473 17.8536 16.8536C17.9473 16.7598 18 16.6326 18 16.5V15.5C18 15.3674 17.9473 15.2402 17.8536 15.1464C17.7598 15.0527 17.6326 15 17.5 15H15.5ZM15.5 18C15.3674 18 15.2402 18.0527 15.1464 18.1464C15.0527 18.2402 15 18.3674 15 18.5C15 18.6326 15.0527 18.7598 15.1464 18.8536C15.2402 18.9473 15.3674 19 15.5 19H20.5C20.6326 19 20.7598 18.9473 20.8536 18.8536C20.9473 18.7598 21 18.6326 21 18.5C21 18.3674 20.9473 18.2402 20.8536 18.1464C20.7598 18.0527 20.6326 18 20.5 18H15.5ZM15.5 20C15.3674 20 15.2402 20.0527 15.1464 20.1464C15.0527 20.2402 15 20.3674 15 20.5C15 20.6326 15.0527 20.7598 15.1464 20.8536C15.2402 20.9473 15.3674 21 15.5 21H16.5C16.6326 21 16.7598 20.9473 16.8536 20.8536C16.9473 20.7598 17 20.6326 17 20.5C17 20.3674 16.9473 20.2402 16.8536 20.1464C16.7598 20.0527 16.6326 20 16.5 20H15.5ZM18.5 20C18.3674 20 18.2402 20.0527 18.1464 20.1464C18.0527 20.2402 18 20.3674 18 20.5C18 20.6326 18.0527 20.7598 18.1464 20.8536C18.2402 20.9473 18.3674 21 18.5 21H19.5C19.6326 21 19.7598 20.9473 19.8536 20.8536C19.9473 20.7598 20 20.6326 20 20.5C20 20.3674 19.9473 20.2402 19.8536 20.1464C19.7598 20.0527 19.6326 20 19.5 20H18.5ZM21.5 20C21.3674 20 21.2402 20.0527 21.1464 20.1464C21.0527 20.2402 21 20.3674 21 20.5C21 20.6326 21.0527 20.7598 21.1464 20.8536C21.2402 20.9473 21.3674 21 21.5 21H22.5C22.6326 21 22.7598 20.9473 22.8536 20.8536C22.9473 20.7598 23 20.6326 23 20.5C23 20.3674 22.9473 20.2402 22.8536 20.1464C22.7598 20.0527 22.6326 20 22.5 20H21.5ZM24.5 20C24.3674 20 24.2402 20.0527 24.1464 20.1464C24.0527 20.2402 24 20.3674 24 20.5C24 20.6326 24.0527 20.7598 24.1464 20.8536C24.2402 20.9473 24.3674 21 24.5 21H25.5C25.6326 21 25.7598 20.9473 25.8536 20.8536C25.9473 20.7598 26 20.6326 26 20.5C26 20.3674 25.9473 20.2402 25.8536 20.1464C25.7598 20.0527 25.6326 20 25.5 20H24.5Z" fill="white"/>
</svg>
