<svg width="40" height="40" viewBox="0 0 40 40" fill="none" xmlns="http://www.w3.org/2000/svg">
<rect width="40" height="40" rx="10" fill="#C4C4C4"/>
<rect width="40" height="40" rx="10" fill="#248344"/>
<path d="M17.75 15.6875H20.75V17.5625H17.75V15.6875Z" fill="#FFD782"/>
<path d="M18.5 16.25H19V16.625H18.5V16.25Z" fill="#394D5C"/>
<path d="M19.5 16.25H20V16.625H19.5V16.25Z" fill="#394D5C"/>
<path d="M18.75 24.6875H17.5L17.75 21.3125H19.25L18.75 24.6875Z" fill="#2D75BB"/>
<path d="M18.75 14.5625H19.75C20.0152 14.5625 20.2696 14.6415 20.4571 14.7822C20.6446 14.9228 20.75 15.1136 20.75 15.3125V15.6875H17.75V15.3125C17.75 15.1136 17.8554 14.9228 18.0429 14.7822C18.2304 14.6415 18.4848 14.5625 18.75 14.5625Z" fill="#DA1C4B"/>
<path d="M16.5 15.5H20.75V15.875H16.5V15.5Z" fill="#8EC13F"/>
<path d="M17.75 18.3125H20.75V21.3125H17.75V18.3125Z" fill="#DA1C4B"/>
<path d="M17.25 24.6875H18.75V25.4375H16.75V25.0625C16.75 24.963 16.8027 24.8677 16.8964 24.7973C16.9902 24.727 17.1174 24.6875 17.25 24.6875Z" fill="#394D5C"/>
<path d="M19.75 24.6875H21L20.75 21.3125H19.25L19.75 24.6875Z" fill="#2D75BB"/>
<path d="M21.75 25.4375H19.75V24.6875H21.25C21.3826 24.6875 21.5098 24.727 21.6036 24.7973C21.6973 24.8677 21.75 24.963 21.75 25.0625V25.4375Z" fill="#394D5C"/>
<path d="M15 19.0625H19.5V19.8125H15V19.0625Z" fill="#D3843D"/>
<path d="M15.5 18.3125H20V19.0625H15.5V18.3125Z" fill="#AD6327"/>
<path d="M15 17.5625H19.5V18.3125H15V17.5625Z" fill="#D3843D"/>
<path d="M17 19.8125H18.5V20C18.5 20.1492 18.421 20.2923 18.2803 20.3977C18.1397 20.5032 17.9489 20.5625 17.75 20.5625C17.5511 20.5625 17.3603 20.5032 17.2197 20.3977C17.079 20.2923 17 20.1492 17 20V19.8125Z" fill="#FFD782"/>
<path d="M23 14.5625H28.75V25.4375H23V14.5625Z" fill="#D3843D"/>
<path d="M24.75 23.75H25.25V24.125H24.75V23.75Z" fill="#AD6327"/>
<path d="M26.5 23.75H27V24.125H26.5V23.75Z" fill="#AD6327"/>
<path d="M28 18.875H27.5V15.5H24.25V17.1875H23.75V15.3125C23.75 15.2628 23.7763 15.2151 23.8232 15.1799C23.8701 15.1448 23.9337 15.125 24 15.125H27.75C27.8163 15.125 27.8799 15.1448 27.9268 15.1799C27.9737 15.2151 28 15.2628 28 15.3125V18.875Z" fill="#AD6327"/>
<path d="M27.5 20V21.875H24.25V20.375H23.75V24.6875C23.75 24.7372 23.7763 24.7849 23.8232 24.8201C23.8701 24.8552 23.9337 24.875 24 24.875H27.75C27.8163 24.875 27.8799 24.8552 27.9268 24.8201C27.9737 24.7849 28 24.7372 28 24.6875V20H27.5ZM27.5 24.5H24.25V22.25H27.5V24.5Z" fill="#AD6327"/>
<path d="M20.75 18.3125H21.5L22.5 19.0625L21.75 19.625L20.75 18.875V18.3125Z" fill="#8EC13F"/>
<path d="M25.75 18.3124C25.7501 18.237 25.7299 18.1623 25.6906 18.0928C25.6514 18.0233 25.5939 17.9604 25.5216 17.9079C25.4493 17.8554 25.3636 17.8144 25.2697 17.7873C25.1758 17.7601 25.0756 17.7474 24.975 17.7499C24.8756 17.7559 24.7789 17.7769 24.6907 17.8116C24.6025 17.8464 24.5246 17.8942 24.4618 17.9523C24.3691 18.0174 24.3033 18.1012 24.2723 18.1935C24.2413 18.2859 24.2463 18.383 24.2867 18.4733L23 19.4374L22.5 19.0624L21.75 19.6249L22.4157 20.2249C22.4867 20.2888 22.5756 20.34 22.6761 20.375C22.7766 20.41 22.8862 20.4278 22.997 20.4273C23.1078 20.4267 23.2171 20.4077 23.3169 20.3717C23.4168 20.3357 23.5047 20.2835 23.5745 20.2189L25.0275 18.8738C25.2215 18.8688 25.4052 18.8074 25.54 18.7027C25.6748 18.5979 25.7501 18.458 25.75 18.3124V18.3124Z" fill="#FFD782"/>
<path d="M24.7601 17.1241L25.0099 16.5616L25.4843 16.6801L25.2345 17.2426L24.7601 17.1241Z" fill="#FCF05A"/>
<path d="M25.6119 17.4037L26.3619 17.0285L26.6394 17.3404L25.8894 17.7156L25.6119 17.4037Z" fill="#FCF05A"/>
<path d="M26.1697 18.299L26.3276 17.9433L27.0776 18.1306L26.9197 18.4863L26.1697 18.299Z" fill="#FCF05A"/>
<path d="M27.75 20.1875C28.0261 20.1875 28.25 20.0196 28.25 19.8125C28.25 19.6054 28.0261 19.4375 27.75 19.4375C27.4739 19.4375 27.25 19.6054 27.25 19.8125C27.25 20.0196 27.4739 20.1875 27.75 20.1875Z" fill="#F4F4E6"/>
</svg>
