<svg width="40" height="40" viewBox="0 0 40 40" fill="none" xmlns="http://www.w3.org/2000/svg">
<rect width="40" height="40" rx="10" fill="#C4C4C4"/>
<rect width="40" height="40" rx="10" fill="#F47B0A"/>
<path d="M27.7334 19.5324V23.3006C27.7329 23.4596 27.6766 23.612 27.5767 23.7244C27.4768 23.8368 27.3414 23.9002 27.2 23.9007H22.4C22.2587 23.9002 22.1233 23.8368 22.0234 23.7244C21.9234 23.612 21.8671 23.4596 21.8667 23.3006V15.5001C21.8671 15.3411 21.9234 15.1887 22.0234 15.0763C22.1233 14.9639 22.2587 14.9005 22.4 14.9H24.4454C24.5503 14.9006 24.6528 14.9359 24.74 15.0015C24.8273 15.0671 24.8954 15.1602 24.936 15.2691L26.04 18.2483C26.0688 18.3269 26.1125 18.3975 26.168 18.4553C26.2238 18.5144 26.2902 18.5594 26.3627 18.5873L27.368 18.9623C27.4743 19.0024 27.5666 19.079 27.6322 19.1812C27.6977 19.2835 27.7331 19.4063 27.7334 19.5324V19.5324Z" fill="#91DC5A"/>
<path d="M27.7333 19.5324V23.3006C27.7329 23.4596 27.6766 23.612 27.5767 23.7244C27.4767 23.8368 27.3413 23.9002 27.2 23.9007H26.1333C26.2746 23.9002 26.4101 23.8368 26.51 23.7244C26.6099 23.612 26.6662 23.4596 26.6667 23.3006V19.5324C26.6664 19.4063 26.631 19.2835 26.5655 19.1812C26.4999 19.079 26.4076 19.0024 26.3013 18.9623L25.296 18.5873C25.2235 18.5594 25.1571 18.5144 25.1013 18.4553C25.0458 18.3975 25.0021 18.3269 24.9733 18.2483L23.8693 15.2691C23.8287 15.1602 23.7606 15.0671 23.6733 15.0015C23.5861 14.9359 23.4836 14.9006 23.3787 14.9H24.4453C24.5503 14.9006 24.6527 14.9359 24.74 15.0015C24.8272 15.0671 24.8954 15.1602 24.936 15.2691L26.04 18.2483C26.0688 18.3269 26.1125 18.3975 26.168 18.4553C26.2238 18.5144 26.2901 18.5594 26.3627 18.5873L27.368 18.9623C27.4742 19.0024 27.5666 19.079 27.6321 19.1812C27.6977 19.2835 27.7331 19.4063 27.7333 19.5324V19.5324Z" fill="#5EAC24"/>
<path d="M25.1493 18.5003H25.0667L25.1013 18.4553L25.1493 18.5003Z" fill="#91DC5A"/>
<path d="M26.168 18.4553L26.1333 18.5003H22.9333V14.9H24.4453C24.5503 14.9006 24.6528 14.9359 24.74 15.0015C24.8273 15.0671 24.8954 15.1602 24.936 15.2691L26.04 18.2483C26.0688 18.3269 26.1125 18.3975 26.168 18.4553V18.4553Z" fill="#BDFDFF"/>
<path d="M26.168 18.4553L26.1333 18.5003H25.1493L25.1013 18.4553C25.0458 18.3975 25.0021 18.3269 24.9733 18.2483L23.8693 15.2691C23.8287 15.1602 23.7606 15.0671 23.6733 15.0015C23.5861 14.9359 23.4836 14.9006 23.3787 14.9H24.4453C24.5503 14.9006 24.6527 14.9359 24.74 15.0015C24.8272 15.0671 24.8954 15.1602 24.936 15.2691L26.04 18.2483C26.0688 18.3269 26.1125 18.3975 26.168 18.4553V18.4553Z" fill="#46F8FF"/>
<path d="M20.2667 21.8005H21.8667V23.0006H20.2667V21.8005Z" fill="#898890"/>
<path d="M20.2667 19.4004H21.8667V20.6005H20.2667V19.4004Z" fill="#898890"/>
<path d="M21.0667 19.4004H21.8667V20.6005H21.0667V19.4004Z" fill="#57565C"/>
<path d="M21.0667 21.8005H21.8667V23.0006H21.0667V21.8005Z" fill="#57565C"/>
<path d="M12.2667 17.9003H20.2667V23.9007H12.2667V17.9003Z" fill="#91DC5A"/>
<path d="M19.2 17.9003H20.2666V23.9007H19.2V17.9003Z" fill="#5EAC24"/>
<path d="M18.6666 16.1001H20.2666V17.9002H18.6666V16.1001Z" fill="#C0AB91"/>
<path d="M18.6666 14.3H20.2666V16.1002H18.6666V14.3Z" fill="#A78966"/>
<path d="M19.2 16.1001H20.2666V17.9002H19.2V16.1001Z" fill="#A78966"/>
<path d="M19.2 14.3H20.2666V16.1002H19.2V14.3Z" fill="#806749"/>
<path d="M17.0667 16.1001H18.6667V17.9002H17.0667V16.1001Z" fill="#A78966"/>
<path d="M17.0667 14.3H18.6667V16.1002H17.0667V14.3Z" fill="#C0AB91"/>
<path d="M15.4667 16.1001H17.0667V17.9002H15.4667V16.1001Z" fill="#C0AB91"/>
<path d="M15.4667 14.3H17.0667V16.1002H15.4667V14.3Z" fill="#A78966"/>
<path d="M13.8667 16.1001H15.4667V17.9002H13.8667V16.1001Z" fill="#A78966"/>
<path d="M13.8667 14.3H15.4667V16.1002H13.8667V14.3Z" fill="#C0AB91"/>
<path d="M12.2667 16.1001H13.8667V17.9002H12.2667V16.1001Z" fill="#C0AB91"/>
<path d="M12.2667 14.3H13.8667V16.1002H12.2667V14.3Z" fill="#A78966"/>
<path d="M14.9334 25.7008C15.817 25.7008 16.5334 24.8949 16.5334 23.9007C16.5334 22.9065 15.817 22.1006 14.9334 22.1006C14.0497 22.1006 13.3334 22.9065 13.3334 23.9007C13.3334 24.8949 14.0497 25.7008 14.9334 25.7008Z" fill="#898890"/>
<path d="M16.5333 23.9007C16.5333 24.3781 16.3647 24.836 16.0647 25.1736C15.7646 25.5112 15.3576 25.7008 14.9333 25.7008C14.8439 25.7011 14.7546 25.692 14.6666 25.6738C15.0393 25.6033 15.3777 25.3865 15.6217 25.0619C15.8658 24.7373 15.9997 24.3259 15.9997 23.9007C15.9997 23.4756 15.8658 23.0641 15.6217 22.7395C15.3777 22.4149 15.0393 22.1981 14.6666 22.1276C14.7546 22.1094 14.8439 22.1004 14.9333 22.1006C15.3576 22.1006 15.7646 22.2902 16.0647 22.6278C16.3647 22.9654 16.5333 23.4233 16.5333 23.9007V23.9007Z" fill="#57565C"/>
<path d="M14.9334 24.5007C15.2279 24.5007 15.4667 24.2321 15.4667 23.9007C15.4667 23.5693 15.2279 23.3007 14.9334 23.3007C14.6388 23.3007 14.4 23.5693 14.4 23.9007C14.4 24.2321 14.6388 24.5007 14.9334 24.5007Z" fill="#C6C5CA"/>
<path d="M15.4666 23.9007C15.4665 24.006 15.4418 24.1094 15.395 24.2005C15.3481 24.2916 15.2808 24.3673 15.1997 24.4199C15.1187 24.4725 15.0267 24.5002 14.9332 24.5001C14.8396 24.5001 14.7477 24.4724 14.6666 24.4197C14.7474 24.367 14.8145 24.2913 14.8612 24.2002C14.9078 24.1091 14.9323 24.0058 14.9323 23.9007C14.9323 23.7956 14.9078 23.6923 14.8612 23.6012C14.8145 23.5101 14.7474 23.4344 14.6666 23.3817C14.7477 23.329 14.8396 23.3013 14.9332 23.3013C15.0267 23.3012 15.1187 23.3289 15.1997 23.3815C15.2808 23.4341 15.3481 23.5098 15.395 23.6009C15.4418 23.692 15.4665 23.7954 15.4666 23.9007V23.9007Z" fill="#ACABB1"/>
<path d="M24.8 25.7008C25.6836 25.7008 26.4 24.8949 26.4 23.9007C26.4 22.9065 25.6836 22.1006 24.8 22.1006C23.9163 22.1006 23.2 22.9065 23.2 23.9007C23.2 24.8949 23.9163 25.7008 24.8 25.7008Z" fill="#898890"/>
<path d="M26.4 23.9007C26.4 24.3781 26.2314 24.836 25.9314 25.1736C25.6313 25.5112 25.2243 25.7008 24.8 25.7008C24.7106 25.7011 24.6213 25.692 24.5333 25.6738C24.906 25.6033 25.2444 25.3865 25.4884 25.0619C25.7325 24.7373 25.8664 24.3259 25.8664 23.9007C25.8664 23.4756 25.7325 23.0641 25.4884 22.7395C25.2444 22.4149 24.906 22.1981 24.5333 22.1276C24.6213 22.1094 24.7106 22.1004 24.8 22.1006C25.2243 22.1006 25.6313 22.2902 25.9314 22.6278C26.2314 22.9654 26.4 23.4233 26.4 23.9007V23.9007Z" fill="#57565C"/>
<path d="M24.8001 24.5007C25.0946 24.5007 25.3334 24.2321 25.3334 23.9007C25.3334 23.5693 25.0946 23.3007 24.8001 23.3007C24.5055 23.3007 24.2667 23.5693 24.2667 23.9007C24.2667 24.2321 24.5055 24.5007 24.8001 24.5007Z" fill="#C6C5CA"/>
<path d="M25.3333 23.9007C25.3332 24.006 25.3085 24.1094 25.2617 24.2005C25.2148 24.2916 25.1475 24.3673 25.0664 24.4199C24.9854 24.4725 24.8934 24.5002 24.7999 24.5001C24.7063 24.5001 24.6144 24.4724 24.5333 24.4197C24.6141 24.367 24.6812 24.2913 24.7279 24.2002C24.7745 24.1091 24.799 24.0058 24.799 23.9007C24.799 23.7956 24.7745 23.6923 24.7279 23.6012C24.6812 23.5101 24.6141 23.4344 24.5333 23.3817C24.6144 23.329 24.7063 23.3013 24.7999 23.3013C24.8934 23.3012 24.9854 23.3289 25.0664 23.3815C25.1475 23.4341 25.2148 23.5098 25.2617 23.6009C25.3085 23.692 25.3332 23.7954 25.3333 23.9007V23.9007Z" fill="#ACABB1"/>
<path d="M27.4533 18.6773L26.448 18.3023C26.412 18.2886 26.3789 18.2666 26.3509 18.2376C26.3229 18.2087 26.3005 18.1735 26.2853 18.1343L25.184 15.1551C25.1237 14.9906 25.0212 14.85 24.8897 14.7512C24.7582 14.6523 24.6035 14.5997 24.4453 14.6H22.4C22.188 14.6008 21.9849 14.6958 21.835 14.8645C21.6851 15.0331 21.6006 15.2616 21.6 15.5001V19.1004H20.5333V14.3C20.5333 14.2205 20.5052 14.1441 20.4552 14.0879C20.4052 14.0316 20.3374 14 20.2667 14H12.2667C12.1959 14 12.1281 14.0316 12.0781 14.0879C12.0281 14.1441 12 14.2205 12 14.3V23.9007C12 23.9803 12.0281 24.0566 12.0781 24.1128C12.1281 24.1691 12.1959 24.2007 12.2667 24.2007H13.088C13.1518 24.7002 13.3734 25.1571 13.7124 25.4876C14.0513 25.8181 14.4848 26 14.9333 26C15.3819 26 15.8153 25.8181 16.1543 25.4876C16.4932 25.1571 16.7149 24.7002 16.7787 24.2007H20.2667C20.3374 24.2007 20.4052 24.1691 20.4552 24.1128C20.5052 24.0566 20.5333 23.9803 20.5333 23.9007V23.3007H21.6C21.6006 23.5391 21.6851 23.7677 21.835 23.9363C21.9849 24.105 22.188 24.2 22.4 24.2007H22.9547C23.0184 24.7002 23.2401 25.1571 23.5791 25.4876C23.918 25.8181 24.3515 26 24.8 26C25.2485 26 25.682 25.8181 26.0209 25.4876C26.3599 25.1571 26.5816 24.7002 26.6453 24.2007H27.2C27.412 24.2 27.6151 24.105 27.765 23.9363C27.9149 23.7677 27.9994 23.5391 28 23.3007V19.5324C28.0002 19.3433 27.9476 19.159 27.8494 19.0055C27.7513 18.852 27.6127 18.7372 27.4533 18.6773V18.6773ZM17.3333 14.6H18.4V15.8001H17.3333V14.6ZM17.3333 16.4002H18.4V17.6003H17.3333V16.4002ZM15.7333 14.6H16.8V15.8001H15.7333V14.6ZM15.7333 16.4002H16.8V17.6003H15.7333V16.4002ZM14.1333 14.6H15.2V15.8001H14.1333V14.6ZM14.1333 16.4002H15.2V17.6003H14.1333V16.4002ZM12.5333 14.6H13.6V15.8001H12.5333V14.6ZM12.5333 16.4002H13.6V17.6003H12.5333V16.4002ZM16.24 24.2007C16.2052 24.388 16.1392 24.5662 16.0453 24.7258L15.8773 24.5367L15.4987 24.9628L15.6667 25.1518C15.5248 25.2574 15.3665 25.3317 15.2 25.3708V25.1008H14.6667V25.3708C14.5002 25.3317 14.3418 25.2574 14.2 25.1518L14.368 24.9628L13.9893 24.5367L13.8213 24.7258C13.7275 24.5662 13.6614 24.388 13.6267 24.2007H13.8667V23.6007H13.6267C13.6614 23.4134 13.7275 23.2352 13.8213 23.0756L13.9893 23.2647L14.368 22.8386L14.2 22.6496C14.3418 22.544 14.5002 22.4697 14.6667 22.4306V22.7006H15.2V22.4306C15.3665 22.4697 15.5248 22.544 15.6667 22.6496L15.4987 22.8386L15.8773 23.2647L16.0453 23.0756C16.1392 23.2352 16.2052 23.4134 16.24 23.6007H16V24.2007H16.24ZM20 23.6007H16.7787C16.7149 23.1012 16.4932 22.6443 16.1543 22.3138C15.8153 21.9833 15.3819 21.8014 14.9333 21.8014C14.4848 21.8014 14.0513 21.9833 13.7124 22.3138C13.3734 22.6443 13.1518 23.1012 13.088 23.6007H12.5333V21.5005H13.3333V20.9005H12.5333V20.3004H13.3333V19.7004H12.5333V18.2003H20V23.6007ZM20 17.6003H18.9333V16.4002H20V17.6003ZM20 15.8001H18.9333V14.6H20V15.8001ZM21.6 22.7006H20.5333V22.1006H21.6V22.7006ZM21.6 21.5005H20.5333V20.9005H21.6V21.5005ZM21.6 20.3004H20.5333V19.7004H21.6V20.3004ZM23.2 15.2001H24.4453C24.498 15.2004 24.5494 15.2182 24.593 15.2513C24.6367 15.2844 24.6707 15.3313 24.6907 15.3861L25.7333 18.2003H23.2V15.2001ZM26.1067 24.2007C26.0719 24.388 26.0058 24.5662 25.912 24.7258L25.744 24.5367L25.3653 24.9628L25.5333 25.1518C25.3915 25.2574 25.2331 25.3317 25.0667 25.3708V25.1008H24.5333V25.3708C24.3669 25.3317 24.2085 25.2574 24.0667 25.1518L24.2347 24.9628L23.856 24.5367L23.688 24.7258C23.5942 24.5662 23.5281 24.388 23.4933 24.2007H23.7333V23.6007H23.4933C23.5281 23.4134 23.5942 23.2352 23.688 23.0756L23.856 23.2647L24.2347 22.8386L24.0667 22.6496C24.2085 22.544 24.3669 22.4697 24.5333 22.4306V22.7006H25.0667V22.4306C25.2331 22.4697 25.3915 22.544 25.5333 22.6496L25.3653 22.8386L25.744 23.2647L25.912 23.0756C26.0058 23.2352 26.0719 23.4134 26.1067 23.6007H25.8667V24.2007H26.1067ZM27.4667 21.8006H26.6667V22.4006H27.4667V23.3007C27.4667 23.3802 27.4386 23.4565 27.3886 23.5128C27.3386 23.5691 27.2707 23.6007 27.2 23.6007H26.6453C26.5816 23.1012 26.3599 22.6443 26.0209 22.3138C25.682 21.9833 25.2485 21.8014 24.8 21.8014C24.3515 21.8014 23.918 21.9833 23.5791 22.3138C23.2401 22.6443 23.0184 23.1012 22.9547 23.6007H22.4C22.3293 23.6007 22.2614 23.5691 22.2114 23.5128C22.1614 23.4565 22.1333 23.3802 22.1333 23.3007V15.5001C22.1333 15.4205 22.1614 15.3442 22.2114 15.288C22.2614 15.2317 22.3293 15.2001 22.4 15.2001H22.6667V18.5003C22.6667 18.5799 22.6948 18.6562 22.7448 18.7125C22.7948 18.7687 22.8626 18.8003 22.9333 18.8003H26.1333V18.7973C26.1799 18.8277 26.229 18.8528 26.28 18.8723L27.2853 19.2474C27.3383 19.2675 27.3843 19.3058 27.4168 19.357C27.4494 19.4081 27.4668 19.4695 27.4667 19.5324V21.8006Z" fill="black"/>
<path d="M24.8 23.0006C24.6418 23.0006 24.4871 23.0534 24.3555 23.1523C24.224 23.2512 24.1214 23.3918 24.0609 23.5562C24.0003 23.7207 23.9845 23.9017 24.0154 24.0763C24.0462 24.2509 24.1224 24.4112 24.2343 24.5371C24.3462 24.663 24.4887 24.7487 24.6439 24.7834C24.7991 24.8182 24.96 24.8003 25.1061 24.7322C25.2523 24.6641 25.3773 24.5487 25.4652 24.4007C25.5531 24.2527 25.6 24.0787 25.6 23.9007C25.6 23.662 25.5157 23.433 25.3657 23.2642C25.2157 23.0954 25.0122 23.0006 24.8 23.0006V23.0006ZM24.8 24.2007C24.7473 24.2007 24.6957 24.1831 24.6518 24.1501C24.608 24.1172 24.5738 24.0703 24.5536 24.0155C24.5334 23.9607 24.5282 23.9003 24.5385 23.8421C24.5487 23.7839 24.5741 23.7305 24.6114 23.6885C24.6487 23.6466 24.6962 23.618 24.748 23.6064C24.7997 23.5948 24.8533 23.6008 24.902 23.6235C24.9508 23.6462 24.9924 23.6847 25.0217 23.734C25.051 23.7833 25.0667 23.8413 25.0667 23.9007C25.0667 23.9802 25.0386 24.0566 24.9886 24.1128C24.9386 24.1691 24.8707 24.2007 24.8 24.2007Z" fill="black"/>
<path d="M14.9333 23.0006C14.7751 23.0006 14.6204 23.0534 14.4888 23.1523C14.3573 23.2512 14.2547 23.3918 14.1942 23.5562C14.1336 23.7207 14.1178 23.9017 14.1487 24.0763C14.1795 24.2509 14.2557 24.4112 14.3676 24.5371C14.4795 24.663 14.622 24.7487 14.7772 24.7834C14.9324 24.8182 15.0933 24.8003 15.2394 24.7322C15.3856 24.6641 15.5106 24.5487 15.5985 24.4007C15.6864 24.2527 15.7333 24.0787 15.7333 23.9007C15.7333 23.662 15.649 23.433 15.499 23.2642C15.349 23.0954 15.1455 23.0006 14.9333 23.0006V23.0006ZM14.9333 24.2007C14.8806 24.2007 14.829 24.1831 14.7851 24.1501C14.7413 24.1172 14.7071 24.0703 14.6869 24.0155C14.6667 23.9607 14.6615 23.9003 14.6718 23.8421C14.682 23.7839 14.7074 23.7305 14.7447 23.6885C14.782 23.6466 14.8295 23.618 14.8813 23.6064C14.933 23.5948 14.9866 23.6008 15.0353 23.6235C15.0841 23.6462 15.1257 23.6847 15.155 23.734C15.1843 23.7833 15.2 23.8413 15.2 23.9007C15.2 23.9802 15.1719 24.0566 15.1219 24.1128C15.0719 24.1691 15.004 24.2007 14.9333 24.2007Z" fill="black"/>
<path d="M22.6666 19.4004H23.7333V20.0004H22.6666V19.4004Z" fill="black"/>
</svg>
